<svg width="992" height="302" viewBox="0 0 992 302" fill="none" xmlns="http://www.w3.org/2000/svg">
<g clip-path="url(#clip0)">
<path d="M40.9669 187.593L15.6321 178.257C15.2588 178.12 14.8462 178.136 14.485 178.303C14.1237 178.47 13.8435 178.773 13.706 179.146L4.37082 204.481C4.23327 204.855 4.24965 205.267 4.41634 205.628C4.58304 205.99 4.8864 206.27 5.25969 206.407L30.5945 215.743C30.9678 215.88 31.3805 215.864 31.7417 215.697C32.1029 215.53 32.3831 215.227 32.5206 214.854L41.8558 189.519C41.9934 189.145 41.977 188.733 41.8103 188.372C41.6436 188.01 41.3402 187.73 40.9669 187.593ZM30.2243 212.409L7.70442 204.111L16.0024 181.591L38.5222 189.889L30.2243 212.409Z" fill="#00B6F0"/>
</g>
<path d="M147.113 7.7V0H139.18V2.75H121.047V0H113.113V7.7H115.947V25.3H113.113V33H121.047V30.25H139.18V33H147.113V25.3H144.28V7.7H147.113ZM141.447 2.2H144.847V5.5H141.447V2.2ZM115.38 5.5V2.2H118.78V5.5H115.38ZM118.78 30.8H115.38V27.5H118.78V30.8ZM144.847 27.5V30.8H141.447V27.5H144.847ZM142.013 23.1V25.3H139.18V28.05H121.047V25.3H118.213V7.7H121.047V4.95H139.18V7.7H142.013V23.1Z" fill="#F3CD03"/>
<path d="M128.958 10.891L125.165 20.5H127.282L128.013 18.648H132.214L132.945 20.5H135.062L131.269 10.891H128.958ZM128.789 16.679L130.113 13.326L131.437 16.679H128.789Z" fill="#F3CD03"/>
<path d="M871.81 87.8119L875.47 31.9031L921.29 64.1478L871.81 87.8119ZM916.05 63.676L877.788 36.7502L874.732 83.4366L916.05 63.676Z" fill="#112D57"/>
<g clip-path="url(#clip1)">
<path d="M964.499 241.657L971.867 239.253L973.469 244.165L966.101 246.569L968.504 253.937L963.592 255.539L961.189 248.171L953.821 250.574L952.219 245.662L959.587 243.259L957.184 235.891L962.096 234.289L964.499 241.657ZM968.399 270.275L965.995 262.907L970.907 261.305L974.913 273.584L935.617 286.402L925.203 254.474L944.851 248.065L946.453 252.977L931.717 257.784L938.927 279.887L968.399 270.275Z" fill="#00B6F0"/>
</g>
<circle cx="684.613" cy="204.5" r="28" stroke="#F3CD03" stroke-width="5"/>
<defs>
<clipPath id="clip0">
<rect width="36" height="36" fill="white" transform="translate(12.4468 173.887) rotate(20.2274)"/>
</clipPath>
<clipPath id="clip1">
<rect width="62" height="62" fill="white" transform="translate(913.029 242.141) rotate(-18.0648)"/>
</clipPath>
</defs>
</svg>
