<svg width="745" height="378" viewBox="0 0 745 378" fill="none" xmlns="http://www.w3.org/2000/svg">
<path d="M97 5H645C658.807 5 670 16.1929 670 30V365H72V30C72 16.1929 83.1929 5 97 5Z" fill="black" stroke="#9FA2A5" stroke-width="10"/>
<path fill-rule="evenodd" clip-rule="evenodd" d="M0 353.503H745V368.89H0V353.503Z" fill="#D8D8D8"/>
<path fill-rule="evenodd" clip-rule="evenodd" d="M0 368.89H745V368.89C745 373.679 741.117 377.562 736.327 377.562H8.67256C3.88285 377.562 0 373.679 0 368.89V368.89Z" fill="#9FA2A5"/>
<path fill-rule="evenodd" clip-rule="evenodd" d="M319.761 353.503H419.356V353.503C416.618 359.149 410.895 362.735 404.62 362.735H334.497C328.222 362.735 322.499 359.149 319.761 353.503V353.503Z" fill="#9FA2A5"/>
</svg>
