<svg width="224" height="42" viewBox="0 0 224 42" fill="none" xmlns="http://www.w3.org/2000/svg">
<path d="M60.7529 23.7637V31H55.6113V9.67188H64.1221C65.7529 9.67188 67.1934 9.97461 68.4434 10.5801C69.7031 11.1758 70.6748 12.0303 71.3584 13.1436C72.0518 14.2471 72.3984 15.502 72.3984 16.9082C72.3984 18.9883 71.6514 20.6533 70.1572 21.9033C68.6729 23.1436 66.6318 23.7637 64.0342 23.7637H60.7529ZM60.7529 19.7939H64.1221C65.1182 19.7939 65.875 19.5449 66.3926 19.0469C66.9199 18.5488 67.1836 17.8457 67.1836 16.9375C67.1836 15.9414 66.915 15.1455 66.3779 14.5498C65.8408 13.9541 65.1084 13.6514 64.1807 13.6416H60.7529V19.7939ZM84.7127 19.6182L83.0867 19.501C81.534 19.501 80.5379 19.9893 80.0984 20.9658V31H75.1619V15.1504H79.7908L79.952 17.1865C80.782 15.6338 81.9393 14.8574 83.4236 14.8574C83.951 14.8574 84.41 14.916 84.8006 15.0332L84.7127 19.6182ZM85.5426 22.9287C85.5426 21.3467 85.8502 19.9404 86.4654 18.71C87.0807 17.4697 87.9645 16.5176 89.1168 15.8535C90.2691 15.1895 91.6217 14.8574 93.1744 14.8574C95.5475 14.8574 97.4176 15.5947 98.7848 17.0693C100.152 18.5342 100.836 20.5312 100.836 23.0605V23.2363C100.836 25.707 100.147 27.6699 98.7701 29.125C97.4029 30.5703 95.5475 31.293 93.2037 31.293C90.9479 31.293 89.1363 30.6191 87.7691 29.2715C86.402 27.9141 85.6646 26.0781 85.5572 23.7637L85.5426 22.9287ZM90.4791 23.2363C90.4791 24.7012 90.7086 25.7754 91.1676 26.459C91.6266 27.1426 92.3053 27.4844 93.2037 27.4844C94.9615 27.4844 95.86 26.1318 95.899 23.4268V22.9287C95.899 20.0869 94.9908 18.666 93.1744 18.666C91.524 18.666 90.6305 19.8916 90.4937 22.3428L90.4791 23.2363ZM108.96 11.21V15.1504H111.568V18.5781H108.96V25.8291C108.96 26.4248 109.068 26.8398 109.283 27.0742C109.497 27.3086 109.922 27.4258 110.557 27.4258C111.045 27.4258 111.455 27.3965 111.787 27.3379V30.8682C110.899 31.1514 109.971 31.293 109.004 31.293C107.305 31.293 106.05 30.8926 105.24 30.0918C104.429 29.291 104.024 28.0752 104.024 26.4443V18.5781H102.002V15.1504H104.024V11.21H108.96ZM112.661 22.9287C112.661 21.3467 112.969 19.9404 113.584 18.71C114.199 17.4697 115.083 16.5176 116.236 15.8535C117.388 15.1895 118.74 14.8574 120.293 14.8574C122.666 14.8574 124.536 15.5947 125.904 17.0693C127.271 18.5342 127.954 20.5312 127.954 23.0605V23.2363C127.954 25.707 127.266 27.6699 125.889 29.125C124.522 30.5703 122.666 31.293 120.322 31.293C118.067 31.293 116.255 30.6191 114.888 29.2715C113.521 27.9141 112.783 26.0781 112.676 23.7637L112.661 22.9287ZM117.598 23.2363C117.598 24.7012 117.827 25.7754 118.286 26.459C118.745 27.1426 119.424 27.4844 120.322 27.4844C122.08 27.4844 122.979 26.1318 123.018 23.4268V22.9287C123.018 20.0869 122.11 18.666 120.293 18.666C118.643 18.666 117.749 19.8916 117.612 22.3428L117.598 23.2363ZM134.995 15.1504L135.156 17.0107C136.279 15.5752 137.788 14.8574 139.683 14.8574C141.685 14.8574 143.037 15.6533 143.74 17.2451C144.814 15.6533 146.367 14.8574 148.398 14.8574C151.611 14.8574 153.262 16.8008 153.35 20.6875V31H148.398V20.9951C148.398 20.1846 148.262 19.5938 147.988 19.2227C147.715 18.8516 147.217 18.666 146.494 18.666C145.518 18.666 144.79 19.1006 144.312 19.9697L144.326 20.1748V31H139.375V21.0244C139.375 20.1943 139.243 19.5938 138.979 19.2227C138.716 18.8516 138.213 18.666 137.471 18.666C136.523 18.666 135.801 19.1006 135.303 19.9697V31H130.366V15.1504H134.995ZM171.084 23.1924C171.084 25.6533 170.527 27.6211 169.414 29.0957C168.31 30.5605 166.816 31.293 164.931 31.293C163.476 31.293 162.28 30.7607 161.343 29.6963V37.0938H156.406V15.1504H161.02L161.167 16.6152C162.114 15.4434 163.359 14.8574 164.902 14.8574C166.855 14.8574 168.374 15.5801 169.458 17.0254C170.542 18.4609 171.084 20.4385 171.084 22.958V23.1924ZM166.147 22.8848C166.147 20.0723 165.327 18.666 163.686 18.666C162.514 18.666 161.733 19.0859 161.343 19.9258V26.166C161.772 27.0449 162.563 27.4844 163.716 27.4844C165.288 27.4844 166.098 26.127 166.147 23.4121V22.8848ZM182.402 31C182.226 30.6777 182.07 30.2041 181.933 29.5791C181.025 30.7217 179.755 31.293 178.125 31.293C176.63 31.293 175.361 30.8438 174.316 29.9453C173.271 29.0371 172.749 27.8994 172.749 26.5322C172.749 24.8135 173.383 23.5146 174.653 22.6357C175.922 21.7568 177.768 21.3174 180.19 21.3174H181.713V20.4824C181.713 19.0273 181.084 18.2998 179.824 18.2998C178.652 18.2998 178.066 18.876 178.066 20.0283H173.129C173.129 18.4951 173.779 17.25 175.078 16.293C176.386 15.3359 178.051 14.8574 180.073 14.8574C182.094 14.8574 183.691 15.3506 184.863 16.3369C186.035 17.3232 186.635 18.6758 186.665 20.3945V27.4111C186.684 28.8662 186.909 29.9795 187.338 30.751V31H182.402ZM179.311 27.7773C179.926 27.7773 180.434 27.6455 180.835 27.3818C181.245 27.1182 181.538 26.8203 181.713 26.4883V23.9541H180.278C178.559 23.9541 177.7 24.7256 177.7 26.2686C177.7 26.7178 177.851 27.084 178.154 27.3672C178.457 27.6406 178.842 27.7773 179.311 27.7773ZM194.145 15.1504L194.306 17.0107C195.4 15.5752 196.909 14.8574 198.832 14.8574C200.483 14.8574 201.713 15.3506 202.524 16.3369C203.344 17.3232 203.769 18.8076 203.798 20.79V31H198.847V20.9951C198.847 20.1943 198.686 19.6084 198.364 19.2373C198.041 18.8564 197.455 18.666 196.606 18.666C195.639 18.666 194.921 19.0469 194.453 19.8086V31H189.516V15.1504H194.145ZM213.08 24.0859L215.717 15.1504H221.005L214.545 33.6514L214.267 34.3252C213.349 36.376 211.728 37.4014 209.404 37.4014C208.759 37.4014 208.08 37.3037 207.367 37.1084V33.5781H208.012C208.705 33.5781 209.233 33.4756 209.594 33.2705C209.965 33.0752 210.238 32.7188 210.414 32.2012L210.81 31.1465L205.302 15.1504H210.575L213.08 24.0859Z" fill="#0B0D17"/>
<g clip-path="url(#clip0)">
<path d="M0.860352 42H15.0549C21.7857 42 27.2421 36.5262 27.2421 29.774H13.0476C6.31675 29.774 0.860352 35.2478 0.860352 42Z" fill="#F22BB2"/>
<path d="M1.49512 12.226V30.2055C8.22593 30.2055 13.6823 24.7317 13.6823 17.9795V0C6.95152 0 1.49512 5.47378 1.49512 12.226Z" fill="#8C30F5"/>
<path d="M41.0062 0H26.8117C20.0809 0 14.6245 5.47378 14.6245 12.226H28.819C35.5498 12.226 41.0062 6.75225 41.0062 0Z" fill="#FE9A22"/>
<path d="M41.0063 29.0548V11.0753C34.2755 11.0753 28.8191 16.5491 28.8191 23.3013V41.2808C35.5499 41.2808 41.0063 35.807 41.0063 29.0548Z" fill="#2EC5CE"/>
</g>
<defs>
<clipPath id="clip0">
<rect width="41.8667" height="42" fill="white"/>
</clipPath>
</defs>
</svg>
