<svg width="244" height="90" viewBox="0 0 244 90" fill="none" xmlns="http://www.w3.org/2000/svg">
<path d="M70.7529 33.7637V41H65.6113V19.6719H74.1221C75.7529 19.6719 77.1934 19.9746 78.4434 20.5801C79.7031 21.1758 80.6748 22.0303 81.3584 23.1436C82.0518 24.2471 82.3984 25.502 82.3984 26.9082C82.3984 28.9883 81.6514 30.6533 80.1572 31.9033C78.6729 33.1436 76.6318 33.7637 74.0342 33.7637H70.7529ZM70.7529 29.7939H74.1221C75.1182 29.7939 75.875 29.5449 76.3926 29.0469C76.9199 28.5488 77.1836 27.8457 77.1836 26.9375C77.1836 25.9414 76.915 25.1455 76.3779 24.5498C75.8408 23.9541 75.1084 23.6514 74.1807 23.6416H70.7529V29.7939ZM94.7127 29.6182L93.0867 29.501C91.534 29.501 90.5379 29.9893 90.0984 30.9658V41H85.1619V25.1504H89.7908L89.952 27.1865C90.782 25.6338 91.9393 24.8574 93.4236 24.8574C93.951 24.8574 94.41 24.916 94.8006 25.0332L94.7127 29.6182ZM95.5426 32.9287C95.5426 31.3467 95.8502 29.9404 96.4654 28.71C97.0807 27.4697 97.9645 26.5176 99.1168 25.8535C100.269 25.1895 101.622 24.8574 103.174 24.8574C105.547 24.8574 107.418 25.5947 108.785 27.0693C110.152 28.5342 110.836 30.5312 110.836 33.0605V33.2363C110.836 35.707 110.147 37.6699 108.77 39.125C107.403 40.5703 105.547 41.293 103.204 41.293C100.948 41.293 99.1363 40.6191 97.7691 39.2715C96.402 37.9141 95.6646 36.0781 95.5572 33.7637L95.5426 32.9287ZM100.479 33.2363C100.479 34.7012 100.709 35.7754 101.168 36.459C101.627 37.1426 102.305 37.4844 103.204 37.4844C104.962 37.4844 105.86 36.1318 105.899 33.4268V32.9287C105.899 30.0869 104.991 28.666 103.174 28.666C101.524 28.666 100.63 29.8916 100.494 32.3428L100.479 33.2363ZM118.96 21.21V25.1504H121.568V28.5781H118.96V35.8291C118.96 36.4248 119.068 36.8398 119.283 37.0742C119.497 37.3086 119.922 37.4258 120.557 37.4258C121.045 37.4258 121.455 37.3965 121.787 37.3379V40.8682C120.899 41.1514 119.971 41.293 119.004 41.293C117.305 41.293 116.05 40.8926 115.24 40.0918C114.429 39.291 114.024 38.0752 114.024 36.4443V28.5781H112.002V25.1504H114.024V21.21H118.96ZM122.661 32.9287C122.661 31.3467 122.969 29.9404 123.584 28.71C124.199 27.4697 125.083 26.5176 126.236 25.8535C127.388 25.1895 128.74 24.8574 130.293 24.8574C132.666 24.8574 134.536 25.5947 135.904 27.0693C137.271 28.5342 137.954 30.5312 137.954 33.0605V33.2363C137.954 35.707 137.266 37.6699 135.889 39.125C134.522 40.5703 132.666 41.293 130.322 41.293C128.067 41.293 126.255 40.6191 124.888 39.2715C123.521 37.9141 122.783 36.0781 122.676 33.7637L122.661 32.9287ZM127.598 33.2363C127.598 34.7012 127.827 35.7754 128.286 36.459C128.745 37.1426 129.424 37.4844 130.322 37.4844C132.08 37.4844 132.979 36.1318 133.018 33.4268V32.9287C133.018 30.0869 132.11 28.666 130.293 28.666C128.643 28.666 127.749 29.8916 127.612 32.3428L127.598 33.2363ZM144.995 25.1504L145.156 27.0107C146.279 25.5752 147.788 24.8574 149.683 24.8574C151.685 24.8574 153.037 25.6533 153.74 27.2451C154.814 25.6533 156.367 24.8574 158.398 24.8574C161.611 24.8574 163.262 26.8008 163.35 30.6875V41H158.398V30.9951C158.398 30.1846 158.262 29.5938 157.988 29.2227C157.715 28.8516 157.217 28.666 156.494 28.666C155.518 28.666 154.79 29.1006 154.312 29.9697L154.326 30.1748V41H149.375V31.0244C149.375 30.1943 149.243 29.5938 148.979 29.2227C148.716 28.8516 148.213 28.666 147.471 28.666C146.523 28.666 145.801 29.1006 145.303 29.9697V41H140.366V25.1504H144.995ZM181.084 33.1924C181.084 35.6533 180.527 37.6211 179.414 39.0957C178.31 40.5605 176.816 41.293 174.931 41.293C173.476 41.293 172.28 40.7607 171.343 39.6963V47.0938H166.406V25.1504H171.02L171.167 26.6152C172.114 25.4434 173.359 24.8574 174.902 24.8574C176.855 24.8574 178.374 25.5801 179.458 27.0254C180.542 28.4609 181.084 30.4385 181.084 32.958V33.1924ZM176.147 32.8848C176.147 30.0723 175.327 28.666 173.686 28.666C172.514 28.666 171.733 29.0859 171.343 29.9258V36.166C171.772 37.0449 172.563 37.4844 173.716 37.4844C175.288 37.4844 176.098 36.127 176.147 33.4121V32.8848ZM192.402 41C192.226 40.6777 192.07 40.2041 191.933 39.5791C191.025 40.7217 189.755 41.293 188.125 41.293C186.63 41.293 185.361 40.8438 184.316 39.9453C183.271 39.0371 182.749 37.8994 182.749 36.5322C182.749 34.8135 183.383 33.5146 184.653 32.6357C185.922 31.7568 187.768 31.3174 190.19 31.3174H191.713V30.4824C191.713 29.0273 191.084 28.2998 189.824 28.2998C188.652 28.2998 188.066 28.876 188.066 30.0283H183.129C183.129 28.4951 183.779 27.25 185.078 26.293C186.386 25.3359 188.051 24.8574 190.073 24.8574C192.094 24.8574 193.691 25.3506 194.863 26.3369C196.035 27.3232 196.635 28.6758 196.665 30.3945V37.4111C196.684 38.8662 196.909 39.9795 197.338 40.751V41H192.402ZM189.311 37.7773C189.926 37.7773 190.434 37.6455 190.835 37.3818C191.245 37.1182 191.538 36.8203 191.713 36.4883V33.9541H190.278C188.559 33.9541 187.7 34.7256 187.7 36.2686C187.7 36.7178 187.851 37.084 188.154 37.3672C188.457 37.6406 188.842 37.7773 189.311 37.7773ZM204.145 25.1504L204.306 27.0107C205.4 25.5752 206.909 24.8574 208.832 24.8574C210.483 24.8574 211.713 25.3506 212.524 26.3369C213.344 27.3232 213.769 28.8076 213.798 30.79V41H208.847V30.9951C208.847 30.1943 208.686 29.6084 208.364 29.2373C208.041 28.8564 207.455 28.666 206.606 28.666C205.639 28.666 204.921 29.0469 204.453 29.8086V41H199.516V25.1504H204.145ZM223.08 34.0859L225.717 25.1504H231.005L224.545 43.6514L224.267 44.3252C223.349 46.376 221.728 47.4014 219.404 47.4014C218.759 47.4014 218.08 47.3037 217.367 47.1084V43.5781H218.012C218.705 43.5781 219.233 43.4756 219.594 43.2705C219.965 43.0752 220.238 42.7188 220.414 42.2012L220.81 41.1465L215.302 25.1504H220.575L223.08 34.0859Z" fill="#0B0D17"/>
<g clip-path="url(#clip0)">
<path d="M10.8604 52H25.0549C31.7857 52 37.2421 46.5262 37.2421 39.7739H23.0476C16.3168 39.7739 10.8604 45.2477 10.8604 52Z" fill="#F22BB2"/>
<path d="M11.4952 22.226V40.2055C18.2261 40.2055 23.6825 34.7317 23.6825 27.9795V10C16.9516 10 11.4952 15.4738 11.4952 22.226Z" fill="#8C30F5"/>
<path d="M51.0064 10H36.8118C30.081 10 24.6246 15.4738 24.6246 22.226H38.8192C45.55 22.226 51.0064 16.7522 51.0064 10Z" fill="#FE9A22"/>
<path d="M51.0064 39.0546V21.0752C44.2756 21.0752 38.8192 26.549 38.8192 33.3012V51.2807C45.55 51.2807 51.0064 45.8069 51.0064 39.0546Z" fill="#2EC5CE"/>
</g>
<path d="M19.414 83V81.344H13.384V70.238H11.62V83H19.414ZM23.0753 83V74.342H21.4013V83H23.0753ZM21.0233 71.066C21.0233 71.732 21.5633 72.272 22.2293 72.272C22.9133 72.272 23.4533 71.732 23.4533 71.066C23.4533 70.382 22.9133 69.842 22.2293 69.842C21.5633 69.842 21.0233 70.382 21.0233 71.066ZM25.4241 83.468C25.6401 85.322 27.2601 86.69 29.4201 86.69C32.6781 86.69 33.7581 84.548 33.7581 82.352V74.342H32.0841V75.548C31.6521 74.684 30.7521 74.18 29.4201 74.18C27.0441 74.18 25.4421 76.052 25.4421 78.392C25.4421 80.84 27.1161 82.586 29.4201 82.586C30.7161 82.586 31.6521 81.956 32.0661 81.164V82.406C32.0661 84.278 31.2381 85.214 29.4201 85.214C28.1061 85.214 27.1881 84.296 27.0621 83.09L25.4241 83.468ZM29.6721 81.164C28.1421 81.164 27.1701 80.084 27.1701 78.392C27.1701 76.718 28.1781 75.62 29.6721 75.62C31.1301 75.62 32.1381 76.718 32.1381 78.392C32.1381 80.066 31.1301 81.164 29.6721 81.164ZM38.2523 77.906C38.2883 76.628 38.9723 75.62 40.2683 75.62C41.7803 75.62 42.2843 76.592 42.2843 77.798V83H43.9763V77.51C43.9763 75.584 42.9503 74.09 40.8803 74.09C39.8903 74.09 38.8823 74.432 38.2523 75.35V69.968H36.5603V83H38.2523V77.906ZM49.0357 71.606H47.4877V73.01C47.4877 73.766 47.0917 74.342 46.1557 74.342H45.6877V75.872H47.3437V80.624C47.3437 82.19 48.2797 83.09 49.7557 83.09C50.3317 83.09 50.7637 82.982 50.9077 82.928V81.488C50.7637 81.524 50.4577 81.56 50.2417 81.56C49.3597 81.56 49.0357 81.164 49.0357 80.372V75.872H50.9077V74.342H49.0357V71.606ZM54.7824 77.996C54.7824 76.682 55.4664 75.62 56.7984 75.62C58.3104 75.62 58.8144 76.592 58.8144 77.798V83H60.5064V77.51C60.5064 75.584 59.4804 74.09 57.4104 74.09C56.4024 74.09 55.3764 74.504 54.7464 75.584V74.342H53.0904V83H54.7824V77.996ZM64.9718 83V74.342H63.2978V83H64.9718ZM62.9198 71.066C62.9198 71.732 63.4598 72.272 64.1258 72.272C64.8098 72.272 65.3498 71.732 65.3498 71.066C65.3498 70.382 64.8098 69.842 64.1258 69.842C63.4598 69.842 62.9198 70.382 62.9198 71.066ZM69.6425 77.996C69.6425 76.682 70.3265 75.62 71.6585 75.62C73.1705 75.62 73.6745 76.592 73.6745 77.798V83H75.3665V77.51C75.3665 75.584 74.3405 74.09 72.2705 74.09C71.2625 74.09 70.2365 74.504 69.6065 75.584V74.342H67.9505V83H69.6425V77.996ZM77.528 83.468C77.744 85.322 79.364 86.69 81.524 86.69C84.782 86.69 85.862 84.548 85.862 82.352V74.342H84.188V75.548C83.756 74.684 82.856 74.18 81.524 74.18C79.148 74.18 77.546 76.052 77.546 78.392C77.546 80.84 79.22 82.586 81.524 82.586C82.82 82.586 83.756 81.956 84.17 81.164V82.406C84.17 84.278 83.342 85.214 81.524 85.214C80.21 85.214 79.292 84.296 79.166 83.09L77.528 83.468ZM81.776 81.164C80.246 81.164 79.274 80.084 79.274 78.392C79.274 76.718 80.282 75.62 81.776 75.62C83.234 75.62 84.242 76.718 84.242 78.392C84.242 80.066 83.234 81.164 81.776 81.164ZM95.2082 83V77.636H100.644V75.98H95.2082V71.876H101.202V70.238H93.4442V83H95.2082ZM102.105 80.678C102.105 82.046 103.239 83.27 105.003 83.27C106.551 83.27 107.415 82.442 107.793 81.83C107.793 82.46 107.847 82.784 107.883 83H109.539C109.503 82.784 109.431 82.334 109.431 81.578V77.24C109.431 75.548 108.423 74.072 105.831 74.072C103.959 74.072 102.465 75.224 102.285 76.88L103.905 77.258C104.013 76.25 104.679 75.512 105.867 75.512C107.181 75.512 107.739 76.214 107.739 77.06C107.739 77.366 107.595 77.636 107.073 77.708L104.733 78.05C103.239 78.266 102.105 79.13 102.105 80.678ZM105.237 81.848C104.373 81.848 103.833 81.236 103.833 80.588C103.833 79.814 104.373 79.4 105.093 79.292L107.739 78.896V79.292C107.739 81.182 106.623 81.848 105.237 81.848ZM111.357 80.75C111.501 81.74 112.509 83.27 114.885 83.27C117.027 83.27 118.053 81.812 118.053 80.588C118.053 79.31 117.225 78.356 115.659 78.014L114.255 77.708C113.589 77.564 113.265 77.186 113.265 76.664C113.265 76.07 113.841 75.512 114.705 75.512C116.073 75.512 116.433 76.502 116.505 76.952L117.999 76.394C117.819 75.62 117.081 74.072 114.705 74.072C113.013 74.072 111.627 75.332 111.627 76.808C111.627 78.032 112.437 78.95 113.787 79.238L115.263 79.562C115.983 79.724 116.379 80.138 116.379 80.678C116.379 81.29 115.857 81.83 114.903 81.83C113.679 81.83 112.995 81.11 112.887 80.21L111.357 80.75ZM122.674 71.606H121.126V73.01C121.126 73.766 120.73 74.342 119.794 74.342H119.326V75.872H120.982V80.624C120.982 82.19 121.918 83.09 123.394 83.09C123.97 83.09 124.402 82.982 124.546 82.928V81.488C124.402 81.524 124.096 81.56 123.88 81.56C122.998 81.56 122.674 81.164 122.674 80.372V75.872H124.546V74.342H122.674V71.606ZM133.448 76.196V71.822H136.004C137.534 71.822 138.47 72.686 138.47 74.036C138.47 75.35 137.534 76.196 136.004 76.196H133.448ZM136.328 77.78C138.686 77.78 140.27 76.178 140.27 74.018C140.27 71.876 138.686 70.238 136.328 70.238H131.684V83H133.448V77.78H136.328ZM146.887 74.252C146.797 74.234 146.563 74.198 146.329 74.198C145.447 74.198 144.367 74.522 143.737 75.854V74.342H142.081V83H143.773V78.662C143.773 76.754 144.727 75.998 146.149 75.998C146.383 75.998 146.635 76.016 146.887 76.052V74.252ZM152.41 81.758C150.97 81.758 149.71 80.678 149.71 78.662C149.71 76.664 150.97 75.584 152.41 75.584C153.85 75.584 155.11 76.664 155.11 78.662C155.11 80.678 153.85 81.758 152.41 81.758ZM152.41 74.072C149.818 74.072 147.982 76.034 147.982 78.662C147.982 81.308 149.818 83.27 152.41 83.27C155.002 83.27 156.838 81.308 156.838 78.662C156.838 76.034 155.002 74.072 152.41 74.072ZM161.283 71.606H159.735V73.01C159.735 73.766 159.339 74.342 158.403 74.342H157.935V75.872H159.591V80.624C159.591 82.19 160.527 83.09 162.003 83.09C162.579 83.09 163.011 82.982 163.155 82.928V81.488C163.011 81.524 162.705 81.56 162.489 81.56C161.607 81.56 161.283 81.164 161.283 80.372V75.872H163.155V74.342H161.283V71.606ZM169.134 81.758C167.694 81.758 166.434 80.678 166.434 78.662C166.434 76.664 167.694 75.584 169.134 75.584C170.574 75.584 171.834 76.664 171.834 78.662C171.834 80.678 170.574 81.758 169.134 81.758ZM169.134 74.072C166.542 74.072 164.706 76.034 164.706 78.662C164.706 81.308 166.542 83.27 169.134 83.27C171.726 83.27 173.562 81.308 173.562 78.662C173.562 76.034 171.726 74.072 169.134 74.072ZM178.007 71.606H176.459V73.01C176.459 73.766 176.063 74.342 175.127 74.342H174.659V75.872H176.315V80.624C176.315 82.19 177.251 83.09 178.727 83.09C179.303 83.09 179.735 82.982 179.879 82.928V81.488C179.735 81.524 179.429 81.56 179.213 81.56C178.331 81.56 178.007 81.164 178.007 80.372V75.872H179.879V74.342H178.007V71.606ZM184.485 86.618L190.119 74.342H188.301L185.709 80.318L183.009 74.342H181.065L184.791 82.046L182.631 86.618H184.485ZM193.521 86.42V81.83C193.989 82.604 194.997 83.234 196.329 83.234C198.867 83.234 200.361 81.236 200.361 78.662C200.361 76.142 198.975 74.144 196.383 74.144C194.979 74.144 193.953 74.828 193.485 75.692V74.342H191.847V86.42H193.521ZM198.633 78.662C198.633 80.444 197.643 81.722 196.077 81.722C194.529 81.722 193.503 80.444 193.503 78.662C193.503 76.934 194.529 75.638 196.077 75.638C197.661 75.638 198.633 76.934 198.633 78.662ZM203.715 77.78C203.787 76.664 204.651 75.566 206.073 75.566C207.603 75.566 208.413 76.538 208.449 77.78H203.715ZM208.701 80.03C208.377 81.002 207.675 81.776 206.271 81.776C204.813 81.776 203.697 80.696 203.661 79.148H210.177C210.195 79.04 210.213 78.824 210.213 78.608C210.213 75.908 208.719 74.072 206.055 74.072C203.877 74.072 201.915 75.926 201.915 78.644C201.915 81.578 203.949 83.27 206.271 83.27C208.287 83.27 209.673 82.064 210.159 80.534L208.701 80.03Z" fill="#5C5C5C"/>
<defs>
<clipPath id="clip0">
<rect width="41.8667" height="42" fill="white" transform="translate(10 10)"/>
</clipPath>
</defs>
</svg>
