<svg width="622" height="290" viewBox="0 0 622 290" fill="none" xmlns="http://www.w3.org/2000/svg">
<g opacity="0.73">
<g clip-path="url(#clip0)">
<path d="M27.4088 125.995L10.4586 119.725C10.2089 119.632 9.93282 119.643 9.69115 119.755C9.44948 119.867 9.26201 120.071 9.16999 120.322L2.92435 137.338C2.83233 137.588 2.84328 137.866 2.95481 138.108C3.06634 138.351 3.2693 138.539 3.51905 138.631L20.4692 144.901C20.7189 144.994 20.995 144.983 21.2367 144.871C21.4783 144.759 21.6658 144.555 21.7578 144.304L28.0035 127.288C28.0955 127.038 28.0845 126.76 27.973 126.518C27.8615 126.275 27.6585 126.087 27.4088 125.995ZM20.2215 142.662L5.15468 137.089L10.7064 121.964L25.7731 127.537L20.2215 142.662Z" fill="#18F4CD"/>
</g>
<path d="M98.4256 5.17162V0H93.1178V1.84701H80.9858V0H75.6781V5.17162H77.5737V16.9925H75.6781V22.1641H80.9858V20.3171H93.1178V22.1641H98.4256V16.9925H96.53V5.17162H98.4256ZM94.6343 1.47761H96.9091V3.69401H94.6343V1.47761ZM77.1946 3.69401V1.47761H79.4693V3.69401H77.1946ZM79.4693 20.6865H77.1946V18.4701H79.4693V20.6865ZM96.9091 18.4701V20.6865H94.6343V18.4701H96.9091ZM95.0135 15.5149V16.9925H93.1178V18.8395H80.9858V16.9925H79.0902V5.17162H80.9858V3.32461H93.1178V5.17162H95.0135V15.5149Z" fill="#4FFF60"/>
<path d="M86.2791 7.3147L83.7414 13.7685H85.1578L85.6468 12.5246H88.4575L88.9466 13.7685H90.3629L87.8252 7.3147H86.2791ZM86.166 11.2021L87.0518 8.95014L87.9376 11.2021H86.166Z" fill="#4CFF2F"/>
<path d="M583.279 58.9777L585.728 21.4273L616.384 43.0841L583.279 58.9777ZM612.878 42.7672L587.279 24.6828L585.234 56.0392L612.878 42.7672Z" fill="#4DEF14"/>
<g clip-path="url(#clip1)">
<path d="M357.604 249.619L362.534 248.005L363.606 251.304L358.676 252.918L360.284 257.866L356.998 258.942L355.39 253.994L350.461 255.608L349.389 252.309L354.318 250.695L352.71 245.746L355.997 244.67L357.604 249.619ZM360.214 268.84L358.606 263.891L361.892 262.815L364.572 271.063L338.281 279.671L331.314 258.227L344.459 253.923L345.531 257.222L335.672 260.45L340.496 275.296L360.214 268.84Z" fill="#29FEE4"/>
</g>
<path d="M375.586 70.1864C375.586 80.1283 367.561 88.1713 357.681 88.1713C347.8 88.1713 339.775 80.1283 339.775 70.1864C339.775 60.2444 347.8 52.2014 357.681 52.2014C367.561 52.2014 375.586 60.2444 375.586 70.1864Z" stroke="white" stroke-opacity="0.32" stroke-width="5"/>
</g>
<defs>
<clipPath id="clip0">
<rect width="24.0968" height="24.1678" fill="white" transform="matrix(0.937892 0.346927 -0.34457 0.938761 8.32751 116.789)"/>
</clipPath>
<clipPath id="clip1">
<rect width="41.4962" height="41.6261" fill="white" transform="matrix(0.950351 -0.311179 0.309008 0.951059 323.168 249.944)"/>
</clipPath>
</defs>
</svg>
