<svg width="1469" height="1105" viewBox="0 0 1469 1105" fill="none" xmlns="http://www.w3.org/2000/svg">
<g opacity="0.34">
<g clip-path="url(#clip0)">
<path d="M187.699 476.593L162.928 467.257C162.563 467.12 162.159 467.136 161.806 467.303C161.453 467.47 161.179 467.773 161.044 468.146L151.917 493.481C151.782 493.854 151.798 494.267 151.961 494.628C152.124 494.989 152.421 495.27 152.786 495.407L177.557 504.742C177.922 504.88 178.326 504.864 178.679 504.697C179.032 504.53 179.306 504.227 179.441 503.854L188.569 478.519C188.703 478.145 188.687 477.733 188.524 477.372C188.361 477.01 188.064 476.73 187.699 476.593ZM177.195 501.409L155.176 493.111L163.29 470.591L185.309 478.889L177.195 501.409Z" fill="#FFE600"/>
</g>
<path d="M1195.64 316.812L1199.21 260.903L1244.02 293.148L1195.64 316.812ZM1238.89 292.676L1201.48 265.75L1198.49 312.436L1238.89 292.676Z" fill="#FFE600"/>
<g clip-path="url(#clip1)">
<path d="M826.709 750.657L833.913 748.253L835.479 753.165L828.275 755.569L830.625 762.936L825.822 764.539L823.472 757.171L816.268 759.574L814.701 754.662L821.906 752.259L819.556 744.891L824.359 743.289L826.709 750.657ZM830.522 779.275L828.172 771.907L832.975 770.304L836.891 782.584L798.468 795.402L788.286 763.474L807.497 757.065L809.064 761.977L794.655 766.784L801.705 788.887L830.522 779.275Z" fill="#FFE600"/>
</g>
<path d="M766.143 323.5C766.143 339.017 753.857 351.5 738.82 351.5C723.783 351.5 711.498 339.017 711.498 323.5C711.498 307.983 723.783 295.5 738.82 295.5C753.857 295.5 766.143 307.983 766.143 323.5Z" stroke="#FFE600" stroke-opacity="0.87" stroke-width="5"/>
<path d="M279.783 256.316L283.18 249.444L276.257 245.865L275.044 248.319L259.22 240.138L260.433 237.684L253.511 234.105L250.114 240.977L252.586 242.255L244.823 257.962L242.35 256.684L238.954 263.556L245.876 267.135L247.09 264.681L262.913 272.861L261.7 275.316L268.623 278.895L272.019 272.023L269.547 270.745L277.311 255.038L279.783 256.316ZM277.264 248.851L280.231 250.385L278.776 253.33L275.809 251.796L277.264 248.851ZM253.062 240.036L254.518 237.091L257.485 238.625L256.029 241.57L253.062 240.036ZM244.869 264.149L241.902 262.615L243.358 259.67L246.325 261.204L244.869 264.149ZM269.071 272.964L267.615 275.909L264.648 274.375L266.104 271.43L269.071 272.964ZM268.539 267.759L267.569 269.722L265.097 268.444L263.883 270.898L248.06 262.717L249.273 260.263L246.801 258.985L254.564 243.278L257.037 244.556L258.25 242.102L274.073 250.282L272.86 252.737L275.333 254.015L268.539 267.759Z" fill="#FFE600"/>
<path d="M262.532 250.973L254.984 257.837L256.831 258.792L258.286 257.469L261.952 259.365L261.773 261.347L263.62 262.302L264.549 252.016L262.532 250.973ZM259.832 256.062L262.466 253.667L262.142 257.257L259.832 256.062Z" fill="#FFE600"/>
</g>
<defs>
<clipPath id="clip0">
<rect width="35.2966" height="35.9053" fill="white" transform="matrix(0.93576 0.352637 -0.338956 0.940802 159.813 462.886)"/>
</clipPath>
<clipPath id="clip1">
<rect width="60.7561" height="61.8688" fill="white" transform="matrix(0.948612 -0.316441 0.303844 0.952722 776.382 751.141)"/>
</clipPath>
</defs>
</svg>
