<svg width="850" height="334" viewBox="0 0 850 334" fill="none" xmlns="http://www.w3.org/2000/svg">
<path d="M0 0.5H850V170.365C850 170.365 786.235 193.179 767.516 263.586C748.796 333.994 741.483 333.994 703.751 333.994C666.019 333.994 638.399 333.994 581.779 333.994C525.159 333.994 481.16 333.994 440.795 333.994C400.43 333.994 385.969 333.994 361.235 333.994C336.502 333.994 332.571 333.994 286.034 333.994C239.498 333.994 160.582 333.994 127.529 333.994C94.4769 333.994 93.3069 336.078 76.6345 263.586C59.9622 191.095 0 183.808 0 183.808V0.5Z" fill="#1E1E1E"/>
</svg>
