<svg width="1469" height="339" viewBox="0 0 1469 339" fill="none" xmlns="http://www.w3.org/2000/svg">
<path fill-rule="evenodd" clip-rule="evenodd" d="M0 0.0692221C0 0.0692221 10.5601 -1.93073 25.5301 15.5692C40.5 33.0692 45.4441 57.5693 55.6561 100.569C65.8681 143.569 70.9741 178.069 94.9724 227.069C118.971 276.069 128 303.5 181.749 311.977C235.498 320.454 273.5 302.347 300.5 291C327.5 279.653 360.638 263.991 396.916 216.005C431.944 168.019 468.222 84.0444 504.5 90.0426C539.527 96.0409 575.805 192.012 610.833 234C647.111 275.987 682.138 263.991 718.416 234C754.694 204.009 789.722 156.023 826 144.027C861.027 132.03 897.305 156.023 932.333 174.018C968.611 192.012 1004.89 204.009 1039.92 192.012C1076.19 180.016 1111.22 144.027 1147.5 162.021C1182.53 180.016 1218.81 251.995 1255.08 293.982C1290.11 335.97 1326.39 347.966 1361.42 329.972C1397.69 311.977 1388.81 197.207 1405.69 127.569C1434.28 9.56923 1469 0.0692221 1469 0.0692221H1451.49C1432.72 0.0692221 1397.69 0.0692221 1361.42 0.0692221C1326.39 0.0692221 1290.11 0.0692221 1255.08 0.0692221C1218.81 0.0692221 1182.53 0.0692221 1147.5 0.0692221C1111.22 0.0692221 1076.19 0.0692221 1039.92 0.0692221C1004.89 0.0692221 968.611 0.0692221 932.333 0.0692221C897.305 0.0692221 861.027 0.0692221 826 0.0692221C789.722 0.0692221 754.694 0.0692221 718.416 0.0692221C682.138 0.0692221 647.111 0.0692221 610.833 0.0692221C575.805 0.0692221 539.527 0.0692221 504.5 0.0692221C468.222 0.0692221 431.944 0.0692221 396.916 0.0692221C360.638 0.0692221 325.611 0.0692221 289.333 0.0692221C254.305 0.0692221 218.027 0.0692221 181.749 0.0692221C146.722 0.0692221 110.444 0.0692221 75.4163 0.0692221C39.1381 0.0692221 18.7646 0.0692221 0 0.0692221Z" fill="#1E1E1E"/>
</svg>
